<svg width="1138" height="1044" viewBox="0 0 1138 1044" fill="none" xmlns="http://www.w3.org/2000/svg">
<g clip-path="url(#clip0_177_1545)">
<path d="M1138 0H0V1044H1138V0Z" fill="none"/>
<path fill-rule="evenodd" clip-rule="evenodd" d="M425 286L271 532H304L439.5 313.5L425 286ZM449 331L320 532H350L462 354.5L449 331ZM470.5 370.5L369 532H392.5L481.5 389.5L470.5 370.5Z" fill="url(#paint0_linear_177_1545)"/>
<path d="M428 586.5H228.5L260 544.5H405L492 407L598.5 586.5H550.5L492 485L428 586.5Z" fill="#008000"/>
<path d="M297.836 703.047V719.5H243.344V703.047H297.836ZM250.234 617.125V719.5H229.141V617.125H250.234ZM290.734 658.82V674.852H243.344V658.82H290.734ZM297.766 617.125V633.648H243.344V617.125H297.766ZM357.526 634.633L329.682 719.5H307.252L345.291 617.125H359.565L357.526 634.633ZM380.658 719.5L352.744 634.633L350.494 617.125H364.908L403.158 719.5H380.658ZM379.393 681.391V697.914H325.323V681.391H379.393ZM471.708 692.711C471.708 690.883 471.426 689.242 470.864 687.789C470.348 686.289 469.364 684.93 467.911 683.711C466.458 682.445 464.418 681.203 461.793 679.984C459.168 678.766 455.77 677.5 451.598 676.188C446.958 674.688 442.551 673 438.379 671.125C434.254 669.25 430.598 667.07 427.411 664.586C424.27 662.055 421.786 659.125 419.958 655.797C418.176 652.469 417.286 648.602 417.286 644.195C417.286 639.93 418.223 636.062 420.098 632.594C421.973 629.078 424.598 626.078 427.973 623.594C431.348 621.062 435.333 619.117 439.926 617.758C444.567 616.398 449.653 615.719 455.184 615.719C462.731 615.719 469.317 617.078 474.942 619.797C480.567 622.516 484.926 626.242 488.02 630.977C491.161 635.711 492.731 641.125 492.731 647.219H471.778C471.778 644.219 471.145 641.594 469.879 639.344C468.661 637.047 466.786 635.242 464.254 633.93C461.77 632.617 458.629 631.961 454.833 631.961C451.176 631.961 448.129 632.523 445.692 633.648C443.254 634.727 441.426 636.203 440.208 638.078C438.989 639.906 438.379 641.969 438.379 644.266C438.379 646 438.801 647.57 439.645 648.977C440.536 650.383 441.848 651.695 443.583 652.914C445.317 654.133 447.45 655.281 449.981 656.359C452.512 657.438 455.442 658.492 458.77 659.523C464.348 661.211 469.247 663.109 473.465 665.219C477.731 667.328 481.293 669.695 484.153 672.32C487.012 674.945 489.168 677.922 490.622 681.25C492.075 684.578 492.801 688.352 492.801 692.57C492.801 697.023 491.934 701.008 490.2 704.523C488.465 708.039 485.958 711.016 482.676 713.453C479.395 715.891 475.481 717.742 470.934 719.008C466.387 720.273 461.301 720.906 455.676 720.906C450.614 720.906 445.622 720.25 440.7 718.938C435.778 717.578 431.301 715.539 427.27 712.82C423.286 710.102 420.098 706.633 417.708 702.414C415.317 698.195 414.122 693.203 414.122 687.438H435.286C435.286 690.625 435.778 693.32 436.762 695.523C437.747 697.727 439.129 699.508 440.911 700.867C442.739 702.227 444.895 703.211 447.379 703.82C449.911 704.43 452.676 704.734 455.676 704.734C459.333 704.734 462.333 704.219 464.676 703.188C467.067 702.156 468.825 700.727 469.95 698.898C471.122 697.07 471.708 695.008 471.708 692.711ZM526.967 617.125L548.342 663.812L569.717 617.125H592.71L559.03 682.234V719.5H537.655V682.234L503.905 617.125H526.967ZM702.737 692.711C702.737 690.883 702.456 689.242 701.894 687.789C701.378 686.289 700.394 684.93 698.941 683.711C697.487 682.445 695.448 681.203 692.823 679.984C690.198 678.766 686.8 677.5 682.628 676.188C677.987 674.688 673.581 673 669.409 671.125C665.284 669.25 661.628 667.07 658.441 664.586C655.3 662.055 652.816 659.125 650.987 655.797C649.206 652.469 648.316 648.602 648.316 644.195C648.316 639.93 649.253 636.062 651.128 632.594C653.003 629.078 655.628 626.078 659.003 623.594C662.378 621.062 666.362 619.117 670.956 617.758C675.597 616.398 680.683 615.719 686.214 615.719C693.761 615.719 700.347 617.078 705.972 619.797C711.597 622.516 715.956 626.242 719.05 630.977C722.191 635.711 723.761 641.125 723.761 647.219H702.808C702.808 644.219 702.175 641.594 700.909 639.344C699.691 637.047 697.816 635.242 695.284 633.93C692.8 632.617 689.659 631.961 685.862 631.961C682.206 631.961 679.159 632.523 676.722 633.648C674.284 634.727 672.456 636.203 671.237 638.078C670.019 639.906 669.409 641.969 669.409 644.266C669.409 646 669.831 647.57 670.675 648.977C671.566 650.383 672.878 651.695 674.612 652.914C676.347 654.133 678.48 655.281 681.011 656.359C683.542 657.438 686.472 658.492 689.8 659.523C695.378 661.211 700.277 663.109 704.495 665.219C708.761 667.328 712.323 669.695 715.183 672.32C718.042 674.945 720.198 677.922 721.652 681.25C723.105 684.578 723.831 688.352 723.831 692.57C723.831 697.023 722.964 701.008 721.23 704.523C719.495 708.039 716.987 711.016 713.706 713.453C710.425 715.891 706.511 717.742 701.964 719.008C697.417 720.273 692.331 720.906 686.706 720.906C681.644 720.906 676.652 720.25 671.73 718.938C666.808 717.578 662.331 715.539 658.3 712.82C654.316 710.102 651.128 706.633 648.737 702.414C646.347 698.195 645.152 693.203 645.152 687.438H666.316C666.316 690.625 666.808 693.32 667.792 695.523C668.777 697.727 670.159 699.508 671.941 700.867C673.769 702.227 675.925 703.211 678.409 703.82C680.941 704.43 683.706 704.734 686.706 704.734C690.362 704.734 693.362 704.219 695.706 703.188C698.097 702.156 699.855 700.727 700.98 698.898C702.152 697.07 702.737 695.008 702.737 692.711ZM828.029 665.922V670.773C828.029 678.555 826.974 685.539 824.865 691.727C822.755 697.914 819.779 703.188 815.935 707.547C812.091 711.859 807.497 715.164 802.154 717.461C796.857 719.758 790.974 720.906 784.505 720.906C778.083 720.906 772.201 719.758 766.857 717.461C761.56 715.164 756.966 711.859 753.076 707.547C749.185 703.188 746.162 697.914 744.005 691.727C741.896 685.539 740.841 678.555 740.841 670.773V665.922C740.841 658.094 741.896 651.109 744.005 644.969C746.115 638.781 749.091 633.508 752.935 629.148C756.826 624.789 761.419 621.461 766.716 619.164C772.06 616.867 777.943 615.719 784.365 615.719C790.833 615.719 796.716 616.867 802.013 619.164C807.357 621.461 811.951 624.789 815.794 629.148C819.685 633.508 822.685 638.781 824.794 644.969C826.951 651.109 828.029 658.094 828.029 665.922ZM806.724 670.773V665.781C806.724 660.344 806.232 655.562 805.247 651.438C804.263 647.312 802.81 643.844 800.888 641.031C798.966 638.219 796.622 636.109 793.857 634.703C791.091 633.25 787.927 632.523 784.365 632.523C780.802 632.523 777.638 633.25 774.872 634.703C772.154 636.109 769.833 638.219 767.912 641.031C766.037 643.844 764.607 647.312 763.622 651.438C762.638 655.562 762.146 660.344 762.146 665.781V670.773C762.146 676.164 762.638 680.945 763.622 685.117C764.607 689.242 766.06 692.734 767.982 695.594C769.904 698.406 772.247 700.539 775.013 701.992C777.779 703.445 780.943 704.172 784.505 704.172C788.068 704.172 791.232 703.445 793.997 701.992C796.763 700.539 799.083 698.406 800.958 695.594C802.833 692.734 804.263 689.242 805.247 685.117C806.232 680.945 806.724 676.164 806.724 670.773ZM914.789 703.047V719.5H863.25V703.047H914.789ZM870.07 617.125V719.5H848.976V617.125H870.07Z" fill="#001C00"/>
<path d="M233.661 765.164V800H229.043V765.164H233.661ZM248.256 780.835V784.616H232.656V780.835H248.256ZM250.625 765.164V768.944H232.656V765.164H250.625ZM262.55 765.164V800H257.932V765.164H262.55ZM299.215 765.164V800H294.573L277.036 773.131V800H272.418V765.164H277.036L294.645 792.104V765.164H299.215ZM318.294 800H311.021L311.069 796.244H318.294C320.783 796.244 322.856 795.725 324.515 794.688C326.174 793.636 327.418 792.168 328.247 790.286C329.093 788.388 329.515 786.171 329.515 783.635V781.505C329.515 779.512 329.276 777.741 328.798 776.194C328.319 774.631 327.617 773.315 326.692 772.246C325.767 771.161 324.635 770.34 323.295 769.782C321.971 769.223 320.448 768.944 318.725 768.944H310.877V765.164H318.725C321.006 765.164 323.087 765.547 324.97 766.312C326.852 767.062 328.471 768.155 329.827 769.59C331.198 771.01 332.251 772.733 332.985 774.758C333.718 776.768 334.085 779.033 334.085 781.553V783.635C334.085 786.155 333.718 788.428 332.985 790.454C332.251 792.463 331.19 794.178 329.803 795.598C328.431 797.017 326.772 798.11 324.826 798.875C322.896 799.625 320.719 800 318.294 800ZM313.485 765.164V800H308.868V765.164H313.485ZM368.033 765.164V800H363.487V765.164H368.033ZM379.23 765.164V768.944H352.314V765.164H379.23ZM408.622 780.142V783.898H389.768V780.142H408.622ZM390.486 765.164V800H385.868V765.164H390.486ZM412.641 765.164V800H408.048V765.164H412.641ZM444.449 796.244V800H426.002V796.244H444.449ZM426.936 765.164V800H422.318V765.164H426.936ZM442.009 780.142V783.898H426.002V780.142H442.009ZM444.21 765.164V768.944H426.002V765.164H444.21ZM487.393 796.244V800H468.946V796.244H487.393ZM469.879 765.164V800H465.262V765.164H469.879ZM484.953 780.142V783.898H468.946V780.142H484.953ZM487.154 765.164V768.944H468.946V765.164H487.154ZM507.477 768.25L495.945 800H491.232L504.511 765.164H507.549L507.477 768.25ZM517.143 800L505.587 768.25L505.515 765.164H508.554L521.881 800H517.143ZM516.545 787.104V790.884H496.974V787.104H516.545ZM546.583 791.195C546.583 790.382 546.455 789.664 546.2 789.042C545.961 788.404 545.53 787.83 544.908 787.319C544.302 786.809 543.456 786.322 542.372 785.86C541.303 785.397 539.947 784.927 538.304 784.448C536.582 783.938 535.026 783.372 533.639 782.75C532.251 782.111 531.063 781.386 530.074 780.572C529.085 779.759 528.327 778.826 527.801 777.773C527.275 776.72 527.011 775.516 527.011 774.16C527.011 772.804 527.29 771.552 527.849 770.404C528.407 769.255 529.205 768.258 530.241 767.413C531.294 766.552 532.546 765.882 533.998 765.403C535.449 764.925 537.068 764.686 538.855 764.686C541.47 764.686 543.688 765.188 545.506 766.193C547.34 767.182 548.736 768.482 549.693 770.093C550.65 771.688 551.129 773.395 551.129 775.213H546.535C546.535 773.905 546.256 772.749 545.697 771.744C545.139 770.723 544.294 769.925 543.161 769.351C542.029 768.761 540.593 768.466 538.855 768.466C537.212 768.466 535.856 768.713 534.787 769.208C533.719 769.702 532.921 770.372 532.395 771.217C531.884 772.063 531.629 773.028 531.629 774.112C531.629 774.846 531.781 775.516 532.084 776.122C532.403 776.712 532.889 777.263 533.543 777.773C534.213 778.283 535.058 778.754 536.079 779.185C537.116 779.615 538.352 780.03 539.788 780.429C541.766 780.987 543.472 781.609 544.908 782.295C546.343 782.981 547.524 783.754 548.449 784.616C549.39 785.461 550.084 786.426 550.53 787.511C550.993 788.579 551.224 789.792 551.224 791.147C551.224 792.567 550.937 793.851 550.363 795C549.789 796.148 548.967 797.129 547.899 797.942C546.83 798.756 545.546 799.386 544.046 799.833C542.563 800.263 540.904 800.479 539.07 800.479C537.459 800.479 535.872 800.255 534.309 799.809C532.761 799.362 531.35 798.692 530.074 797.799C528.814 796.906 527.801 795.805 527.035 794.497C526.286 793.173 525.911 791.642 525.911 789.903H530.504C530.504 791.1 530.736 792.128 531.198 792.99C531.661 793.835 532.291 794.537 533.088 795.095C533.902 795.653 534.819 796.068 535.84 796.339C536.877 796.595 537.953 796.722 539.07 796.722C540.681 796.722 542.045 796.499 543.161 796.052C544.278 795.606 545.123 794.968 545.697 794.138C546.288 793.309 546.583 792.328 546.583 791.195ZM563.533 765.164V800H558.915V765.164H563.533ZM595.532 796.244V800H577.085V796.244H595.532ZM578.018 765.164V800H573.401V765.164H578.018ZM593.091 780.142V783.898H577.085V780.142H593.091ZM595.293 765.164V768.944H577.085V765.164H595.293ZM621.287 791.195C621.287 790.382 621.159 789.664 620.904 789.042C620.664 788.404 620.234 787.83 619.612 787.319C619.006 786.809 618.16 786.322 617.076 785.86C616.007 785.397 614.651 784.927 613.008 784.448C611.286 783.938 609.73 783.372 608.343 782.75C606.955 782.111 605.767 781.386 604.778 780.572C603.789 779.759 603.031 778.826 602.505 777.773C601.978 776.72 601.715 775.516 601.715 774.16C601.715 772.804 601.994 771.552 602.553 770.404C603.111 769.255 603.908 768.258 604.945 767.413C605.998 766.552 607.25 765.882 608.702 765.403C610.153 764.925 611.772 764.686 613.559 764.686C616.174 764.686 618.392 765.188 620.21 766.193C622.044 767.182 623.44 768.482 624.397 770.093C625.354 771.688 625.832 773.395 625.832 775.213H621.239C621.239 773.905 620.96 772.749 620.401 771.744C619.843 770.723 618.998 769.925 617.865 769.351C616.733 768.761 615.297 768.466 613.559 768.466C611.916 768.466 610.56 768.713 609.491 769.208C608.422 769.702 607.625 770.372 607.099 771.217C606.588 772.063 606.333 773.028 606.333 774.112C606.333 774.846 606.484 775.516 606.788 776.122C607.107 776.712 607.593 777.263 608.247 777.773C608.917 778.283 609.762 778.754 610.783 779.185C611.82 779.615 613.056 780.03 614.492 780.429C616.469 780.987 618.176 781.609 619.612 782.295C621.047 782.981 622.228 783.754 623.153 784.616C624.094 785.461 624.788 786.426 625.234 787.511C625.697 788.579 625.928 789.792 625.928 791.147C625.928 792.567 625.641 793.851 625.067 795C624.493 796.148 623.671 797.129 622.602 797.942C621.534 798.756 620.25 799.386 618.75 799.833C617.267 800.263 615.608 800.479 613.774 800.479C612.163 800.479 610.576 800.255 609.013 799.809C607.465 799.362 606.054 798.692 604.778 797.799C603.518 796.906 602.505 795.805 601.739 794.497C600.989 793.173 600.615 791.642 600.615 789.903H605.208C605.208 791.1 605.44 792.128 605.902 792.99C606.365 793.835 606.995 794.537 607.792 795.095C608.606 795.653 609.523 796.068 610.544 796.339C611.581 796.595 612.657 796.722 613.774 796.722C615.385 796.722 616.749 796.499 617.865 796.052C618.982 795.606 619.827 794.968 620.401 794.138C620.991 793.309 621.287 792.328 621.287 791.195ZM646.156 765.164V800H641.61V765.164H646.156ZM657.353 765.164V768.944H630.437V765.164H657.353ZM695.225 791.195C695.225 790.382 695.097 789.664 694.842 789.042C694.603 788.404 694.172 787.83 693.55 787.319C692.944 786.809 692.099 786.322 691.014 785.86C689.945 785.397 688.589 784.927 686.947 784.448C685.224 783.938 683.669 783.372 682.281 782.75C680.893 782.111 679.705 781.386 678.716 780.572C677.727 779.759 676.969 778.826 676.443 777.773C675.917 776.72 675.654 775.516 675.654 774.16C675.654 772.804 675.933 771.552 676.491 770.404C677.049 769.255 677.847 768.258 678.884 767.413C679.936 766.552 681.188 765.882 682.64 765.403C684.091 764.925 685.71 764.686 687.497 764.686C690.113 764.686 692.33 765.188 694.148 766.193C695.983 767.182 697.378 768.482 698.335 770.093C699.292 771.688 699.771 773.395 699.771 775.213H695.177C695.177 773.905 694.898 772.749 694.34 771.744C693.781 770.723 692.936 769.925 691.803 769.351C690.671 768.761 689.235 768.466 687.497 768.466C685.854 768.466 684.498 768.713 683.429 769.208C682.361 769.702 681.563 770.372 681.037 771.217C680.526 772.063 680.271 773.028 680.271 774.112C680.271 774.846 680.423 775.516 680.726 776.122C681.045 776.712 681.531 777.263 682.185 777.773C682.855 778.283 683.701 778.754 684.721 779.185C685.758 779.615 686.994 780.03 688.43 780.429C690.408 780.987 692.115 781.609 693.55 782.295C694.986 782.981 696.166 783.754 697.091 784.616C698.032 785.461 698.726 786.426 699.173 787.511C699.635 788.579 699.866 789.792 699.866 791.147C699.866 792.567 699.579 793.851 699.005 795C698.431 796.148 697.609 797.129 696.541 797.942C695.472 798.756 694.188 799.386 692.689 799.833C691.205 800.263 689.546 800.479 687.712 800.479C686.101 800.479 684.514 800.255 682.951 799.809C681.404 799.362 679.992 798.692 678.716 797.799C677.456 796.906 676.443 795.805 675.677 794.497C674.928 793.173 674.553 791.642 674.553 789.903H679.147C679.147 791.1 679.378 792.128 679.841 792.99C680.303 793.835 680.933 794.537 681.731 795.095C682.544 795.653 683.461 796.068 684.482 796.339C685.519 796.595 686.596 796.722 687.712 796.722C689.323 796.722 690.687 796.499 691.803 796.052C692.92 795.606 693.765 794.968 694.34 794.138C694.93 793.309 695.225 792.328 695.225 791.195ZM734.043 781.481V783.683C734.043 786.299 733.716 788.643 733.062 790.717C732.408 792.79 731.467 794.553 730.239 796.004C729.011 797.456 727.535 798.564 725.813 799.33C724.106 800.096 722.192 800.479 720.07 800.479C718.013 800.479 716.123 800.096 714.4 799.33C712.693 798.564 711.21 797.456 709.95 796.004C708.706 794.553 707.741 792.79 707.055 790.717C706.369 788.643 706.026 786.299 706.026 783.683V781.481C706.026 778.866 706.361 776.529 707.031 774.471C707.717 772.398 708.682 770.635 709.926 769.184C711.17 767.716 712.645 766.6 714.352 765.834C716.075 765.068 717.965 764.686 720.022 764.686C722.144 764.686 724.058 765.068 725.765 765.834C727.487 766.6 728.963 767.716 730.191 769.184C731.435 770.635 732.384 772.398 733.038 774.471C733.708 776.529 734.043 778.866 734.043 781.481ZM729.473 783.683V781.434C729.473 779.36 729.258 777.526 728.827 775.931C728.412 774.336 727.798 772.996 726.985 771.911C726.171 770.826 725.175 770.005 723.994 769.447C722.83 768.889 721.506 768.609 720.022 768.609C718.587 768.609 717.287 768.889 716.123 769.447C714.974 770.005 713.985 770.826 713.156 771.911C712.342 772.996 711.712 774.336 711.266 775.931C710.819 777.526 710.596 779.36 710.596 781.434V783.683C710.596 785.772 710.819 787.622 711.266 789.233C711.712 790.828 712.35 792.176 713.18 793.277C714.025 794.361 715.022 795.183 716.17 795.741C717.335 796.299 718.635 796.579 720.07 796.579C721.57 796.579 722.902 796.299 724.066 795.741C725.23 795.183 726.211 794.361 727.009 793.277C727.822 792.176 728.436 790.828 728.851 789.233C729.266 787.622 729.473 785.772 729.473 783.683ZM763.554 796.244V800H746.136V796.244H763.554ZM747.045 765.164V800H742.428V765.164H747.045ZM788.95 765.164H793.544V788.731C793.544 791.347 792.961 793.524 791.797 795.263C790.633 797.001 789.085 798.309 787.155 799.187C785.241 800.048 783.16 800.479 780.911 800.479C778.55 800.479 776.413 800.048 774.499 799.187C772.601 798.309 771.093 797.001 769.977 795.263C768.876 793.524 768.326 791.347 768.326 788.731V765.164H772.896V788.731C772.896 790.549 773.231 792.049 773.901 793.229C774.57 794.409 775.504 795.287 776.7 795.861C777.912 796.435 779.316 796.722 780.911 796.722C782.522 796.722 783.925 796.435 785.122 795.861C786.334 795.287 787.275 794.409 787.945 793.229C788.615 792.049 788.95 790.549 788.95 788.731V765.164ZM815.135 765.164V800H810.589V765.164H815.135ZM826.332 765.164V768.944H799.416V765.164H826.332ZM837.923 765.164V800H833.305V765.164H837.923ZM874.612 781.481V783.683C874.612 786.299 874.285 788.643 873.631 790.717C872.977 792.79 872.036 794.553 870.808 796.004C869.579 797.456 868.104 798.564 866.381 799.33C864.675 800.096 862.761 800.479 860.639 800.479C858.581 800.479 856.691 800.096 854.969 799.33C853.262 798.564 851.779 797.456 850.518 796.004C849.274 794.553 848.309 792.79 847.623 790.717C846.938 788.643 846.595 786.299 846.595 783.683V781.481C846.595 778.866 846.93 776.529 847.6 774.471C848.285 772.398 849.25 770.635 850.495 769.184C851.739 767.716 853.214 766.6 854.921 765.834C856.643 765.068 858.534 764.686 860.591 764.686C862.713 764.686 864.627 765.068 866.333 765.834C868.056 766.6 869.532 767.716 870.76 769.184C872.004 770.635 872.953 772.398 873.607 774.471C874.277 776.529 874.612 778.866 874.612 781.481ZM870.042 783.683V781.434C870.042 779.36 869.827 777.526 869.396 775.931C868.981 774.336 868.367 772.996 867.554 771.911C866.74 770.826 865.743 770.005 864.563 769.447C863.399 768.889 862.075 768.609 860.591 768.609C859.156 768.609 857.856 768.889 856.691 769.447C855.543 770.005 854.554 770.826 853.725 771.911C852.911 772.996 852.281 774.336 851.834 775.931C851.388 777.526 851.164 779.36 851.164 781.434V783.683C851.164 785.772 851.388 787.622 851.834 789.233C852.281 790.828 852.919 792.176 853.748 793.277C854.594 794.361 855.591 795.183 856.739 795.741C857.904 796.299 859.204 796.579 860.639 796.579C862.138 796.579 863.47 796.299 864.635 795.741C865.799 795.183 866.78 794.361 867.578 793.277C868.391 792.176 869.005 790.828 869.42 789.233C869.835 787.622 870.042 785.772 870.042 783.683ZM909.793 765.164V800H905.152L887.614 773.131V800H882.996V765.164H887.614L905.223 792.104V765.164H909.793Z" fill="#001C00"/>
</g>
<defs>
<linearGradient id="paint0_linear_177_1545" x1="454.5" y1="321.5" x2="328" y2="532" gradientUnits="userSpaceOnUse">
<stop stop-color="#FFEFDB"/>
<stop offset="1" stop-color="#FF8C00"/>
</linearGradient>
<clipPath id="clip0_177_1545">
<rect width="1138" height="1044" fill="white"/>
</clipPath>
</defs>
</svg>
